<?xml version="1.0" encoding="utf-8" standalone="no"?>
<!DOCTYPE svg PUBLIC "-//W3C//DTD SVG 1.1//EN"
  "http://www.w3.org/Graphics/SVG/1.1/DTD/svg11.dtd">
<svg xmlns:xlink="http://www.w3.org/1999/xlink" width="635.4pt" height="320.976pt" viewBox="0 0 635.4 320.976" xmlns="http://www.w3.org/2000/svg" version="1.1">
 <metadata>
  <rdf:RDF xmlns:dc="http://purl.org/dc/elements/1.1/" xmlns:cc="http://creativecommons.org/ns#" xmlns:rdf="http://www.w3.org/1999/02/22-rdf-syntax-ns#">
   <cc:Work>
    <dc:type rdf:resource="http://purl.org/dc/dcmitype/StillImage"/>
    <dc:date>2026-07-05T22:10:15.842233</dc:date>
    <dc:format>image/svg+xml</dc:format>
    <dc:creator>
     <cc:Agent>
      <dc:title>Matplotlib v3.11.0, https://matplotlib.org/</dc:title>
     </cc:Agent>
    </dc:creator>
   </cc:Work>
  </rdf:RDF>
 </metadata>
 <defs>
  <style type="text/css">*{stroke-linejoin: round; stroke-linecap: butt}</style>
 </defs>
 <g id="figure_1">
  <g id="patch_1">
   <path d="M 0 320.976 
L 635.4 320.976 
L 635.4 0 
L 0 0 
z
" style="fill: #fcfcfb"/>
  </g>
  <g id="axes_1">
   <g id="patch_2">
    <path d="M 180.200034 96.007015 
Q 199.125362 96.007015 216.261837 96.007015 
" clip-path="url(#pc923a542b1)" style="fill: none; stroke: #52514e; stroke-width: 1.6; stroke-linecap: round"/>
    <path d="M 210.661837 93.207015 
L 216.261837 96.007015 
L 210.661837 98.807015 
z
" clip-path="url(#pc923a542b1)" style="fill: #52514e; stroke: #52514e; stroke-width: 1.6; stroke-linecap: round"/>
   </g>
   <g id="patch_3">
    <path d="M 392.240034 96.007015 
Q 411.165362 96.007015 428.301837 96.007015 
" clip-path="url(#pc923a542b1)" style="fill: none; stroke: #52514e; stroke-width: 1.6; stroke-linecap: round"/>
    <path d="M 422.701837 93.207015 
L 428.301837 96.007015 
L 422.701837 98.807015 
z
" clip-path="url(#pc923a542b1)" style="fill: #52514e; stroke: #52514e; stroke-width: 1.6; stroke-linecap: round"/>
   </g>
   <g id="patch_4">
    <path d="M 180.200034 215.757415 
Q 199.125362 215.757415 216.261837 215.757415 
" clip-path="url(#pc923a542b1)" style="fill: none; stroke: #52514e; stroke-width: 1.6; stroke-linecap: round"/>
    <path d="M 210.661837 212.957415 
L 216.261837 215.757415 
L 210.661837 218.557415 
z
" clip-path="url(#pc923a542b1)" style="fill: #52514e; stroke: #52514e; stroke-width: 1.6; stroke-linecap: round"/>
   </g>
   <g id="patch_5">
    <path d="M 392.240034 215.757415 
Q 411.165362 215.757415 428.301837 215.757415 
" clip-path="url(#pc923a542b1)" style="fill: none; stroke: #52514e; stroke-width: 1.6; stroke-linecap: round"/>
    <path d="M 422.701837 212.957415 
L 428.301837 215.757415 
L 422.701837 218.557415 
z
" clip-path="url(#pc923a542b1)" style="fill: #52514e; stroke: #52514e; stroke-width: 1.6; stroke-linecap: round"/>
   </g>
   <g id="patch_6">
    <path d="M 306.54 238.487457 
Q 306.54 245.235658 306.54 250.530415 
" clip-path="url(#pc923a542b1)" style="fill: none; stroke-dasharray: 4.81,2.08; stroke-dashoffset: 0; stroke: #0ca30c; stroke-width: 1.3; stroke-linecap: round"/>
    <path d="M 309.34 244.930415 
L 306.54 250.530415 
L 303.74 244.930415 
z
" clip-path="url(#pc923a542b1)" style="fill: #0ca30c; stroke-dasharray: 4.81,2.08; stroke-dashoffset: 0; stroke: #0ca30c; stroke-width: 1.3; stroke-linecap: round"/>
   </g>
   <g id="patch_7">
    <path d="M 36.468 116.733046 
L 174.852 116.733046 
Q 178.2 116.733046 178.2 113.969575 
L 178.2 78.044455 
Q 178.2 75.280985 174.852 75.280985 
L 36.468 75.280985 
Q 33.12 75.280985 33.12 78.044455 
L 33.12 113.969575 
Q 33.12 116.733046 36.468 116.733046 
z
" clip-path="url(#pc923a542b1)" style="fill: #ffffff; stroke: #52514e; stroke-width: 1.4; stroke-linejoin: miter"/>
   </g>
   <g id="patch_8">
    <path d="M 226.188 116.733046 
L 386.892 116.733046 
Q 390.24 116.733046 390.24 113.969575 
L 390.24 78.044455 
Q 390.24 75.280985 386.892 75.280985 
L 226.188 75.280985 
Q 222.84 75.280985 222.84 78.044455 
L 222.84 113.969575 
Q 222.84 116.733046 226.188 116.733046 
z
" clip-path="url(#pc923a542b1)" style="fill: #fdecec; stroke: #d03b3b; stroke-width: 1.6; stroke-linejoin: miter"/>
   </g>
   <g id="patch_9">
    <path d="M 438.228 116.733046 
L 593.352 116.733046 
Q 596.7 116.733046 596.7 113.969575 
L 596.7 78.044455 
Q 596.7 75.280985 593.352 75.280985 
L 438.228 75.280985 
Q 434.88 75.280985 434.88 78.044455 
L 434.88 113.969575 
Q 434.88 116.733046 438.228 116.733046 
z
" clip-path="url(#pc923a542b1)" style="fill: #ffffff; stroke: #52514e; stroke-width: 1.4; stroke-linejoin: miter"/>
   </g>
   <g id="text_1">
    <text style="font-weight: 700; font-size: 9.6px; font-family: 'DejaVu Sans'; text-anchor: start; fill: #d03b3b" x="33.12" y="68.372308" transform="rotate(-0 33.12 68.372308)">prima  —  richiede il piano Firebase Blaze (pay-as-you-go)</text>
   </g>
   <g id="text_2">
    <text style="font-style: italic; font-size: 8.6px; font-family: 'DejaVu Sans'; text-anchor: start; fill: #898781" x="33.12" y="132.853292" transform="rotate(-0 33.12 132.853292)">stato: _deprecated/functions/ — non deployato da nessun workflow attivo</text>
   </g>
   <g id="patch_10">
    <path d="M 36.468 236.483446 
L 174.852 236.483446 
Q 178.2 236.483446 178.2 233.719975 
L 178.2 197.794855 
Q 178.2 195.031385 174.852 195.031385 
L 36.468 195.031385 
Q 33.12 195.031385 33.12 197.794855 
L 33.12 233.719975 
Q 33.12 236.483446 36.468 236.483446 
z
" clip-path="url(#pc923a542b1)" style="fill: #ffffff; stroke: #52514e; stroke-width: 1.4; stroke-linejoin: miter"/>
   </g>
   <g id="patch_11">
    <path d="M 226.188 236.483446 
L 386.892 236.483446 
Q 390.24 236.483446 390.24 233.719975 
L 390.24 197.794855 
Q 390.24 195.031385 386.892 195.031385 
L 226.188 195.031385 
Q 222.84 195.031385 222.84 197.794855 
L 222.84 233.719975 
Q 222.84 236.483446 226.188 236.483446 
z
" clip-path="url(#pc923a542b1)" style="fill: #eefaf4; stroke: #0ca30c; stroke-width: 1.6; stroke-linejoin: miter"/>
   </g>
   <g id="patch_12">
    <path d="M 438.228 236.483446 
L 593.352 236.483446 
Q 596.7 236.483446 596.7 233.719975 
L 596.7 197.794855 
Q 596.7 195.031385 593.352 195.031385 
L 438.228 195.031385 
Q 434.88 195.031385 434.88 197.794855 
L 434.88 233.719975 
Q 434.88 236.483446 438.228 236.483446 
z
" clip-path="url(#pc923a542b1)" style="fill: #ffffff; stroke: #52514e; stroke-width: 1.4; stroke-linejoin: miter"/>
   </g>
   <g id="patch_13">
    <path d="M 226.188 294.055754 
L 386.892 294.055754 
Q 390.24 294.055754 390.24 291.292283 
L 390.24 257.670055 
Q 390.24 254.906585 386.892 254.906585 
L 226.188 254.906585 
Q 222.84 254.906585 222.84 257.670055 
L 222.84 291.292283 
Q 222.84 294.055754 226.188 294.055754 
z
" clip-path="url(#pc923a542b1)" style="fill: #eefaf4; stroke: #0ca30c; stroke-width: 1.4; stroke-linejoin: miter"/>
   </g>
   <g id="text_3">
    <text style="font-weight: 700; font-size: 9.6px; font-family: 'DejaVu Sans'; text-anchor: start; fill: #0ca30c" x="33.12" y="188.122708" transform="rotate(-0 33.12 188.122708)">dopo  —  nessun piano a pagamento per le Cloud Functions (commit d5cb503)</text>
   </g>
   <g id="text_4">
    <text style="font-weight: 700; font-size: 14px; font-family: 'DejaVu Sans'; text-anchor: start; fill: #0b0b0b" x="33.12" y="22.314462" transform="rotate(-0 33.12 22.314462)">Automatizzare la comunicazione al cliente senza legarsi a un costo</text>
   </g>
   <g id="text_5">
    <text style="font-size: 9.3px; font-family: 'DejaVu Sans'; fill: #0b0b0b" transform="translate(79.041656 92.504258)">veicoli/{id}</text>
    <text style="font-size: 9.3px; font-family: 'DejaVu Sans'; fill: #0b0b0b" transform="translate(75.769219 105.751672)">doc Firestore</text>
   </g>
   <g id="text_6">
    <text style="font-size: 9.3px; font-family: 'DejaVu Sans'; fill: #0b0b0b" transform="translate(264.812789 93.196672)">Cloud Function v2</text>
    <text style="font-size: 9.3px; font-family: 'DejaVu Sans'; fill: #0b0b0b" transform="translate(256.864922 104.850734)">onDocumentUpdated</text>
   </g>
   <g id="text_7">
    <text style="font-size: 9.3px; font-family: 'DejaVu Sans'; fill: #0b0b0b" transform="translate(488.880305 93.196672)">email SMTP</text>
    <text style="font-size: 9.3px; font-family: 'DejaVu Sans'; fill: #0b0b0b" transform="translate(485.82075 105.20457)">(nodemailer)</text>
   </g>
   <g id="text_8">
    <text style="font-size: 9.3px; font-family: 'DejaVu Sans'; fill: #0b0b0b" transform="translate(78.297656 212.947072)">client React</text>
    <text style="font-size: 9.3px; font-family: 'DejaVu Sans'; fill: #0b0b0b" transform="translate(71.765859 224.95497)">(cambio stato)</text>
   </g>
   <g id="text_9">
    <text style="font-size: 9.3px; font-family: 'DejaVu Sans'; fill: #0b0b0b" transform="translate(267.144328 212.947072)">Vercel serverless</text>
    <text style="font-size: 9.3px; font-family: 'DejaVu Sans'; fill: #0b0b0b" transform="translate(251.101102 224.601134)">api/sendVehicleReady.js</text>
   </g>
   <g id="text_10">
    <text style="font-size: 9.3px; font-family: 'DejaVu Sans'; fill: #0b0b0b" transform="translate(488.880305 212.947072)">email SMTP</text>
    <text style="font-size: 9.3px; font-family: 'DejaVu Sans'; fill: #0b0b0b" transform="translate(485.82075 224.95497)">(nodemailer)</text>
   </g>
   <g id="text_11">
    <text style="font-size: 8.6px; font-family: 'DejaVu Sans'; fill: #0b0b0b" transform="translate(263.805391 271.882357)">cron GitHub Actions</text>
    <text style="font-size: 8.6px; font-family: 'DejaVu Sans'; fill: #0b0b0b" transform="translate(231.215422 282.659232)">(weekly-report.yml, lun 07:00 UTC)</text>
   </g>
  </g>
 </g>
 <defs>
  <clipPath id="pc923a542b1">
   <rect x="10.8" y="10.8" width="613.8" height="299.376"/>
  </clipPath>
 </defs>
</svg>
